<?xml version="1.0" encoding="UTF-8"?>
<svg width="30px" height="30px" viewBox="0 0 30 30" version="1.1" xmlns="http://www.w3.org/2000/svg" xmlns:xlink="http://www.w3.org/1999/xlink">
    <!-- Generator: Sketch 40.3 (33839) - http://www.bohemiancoding.com/sketch -->
    <title>Group 4</title>
    <desc>Created with Sketch.</desc>
    <defs></defs>
    <g id="Symbols" stroke="none" stroke-width="1" fill="none" fill-rule="evenodd">
        <g id="FooterLinks" transform="translate(-262.000000, 0.000000)">
            <g id="Group-4" transform="translate(262.000000, 0.000000)">
                <rect id="Rectangle-4" fill="#FFFFFF" x="0" y="0" width="30" height="30"></rect>
                <path d="M8.49609375,8.94290163 C8.49609375,9.73391725 7.96875,10.261261 7.16308594,10.261261 C6.37207031,10.261261 5.56640625,9.73391725 5.56640625,8.94290163 C5.56640625,8.13723756 6.37207031,7.60989381 7.16308594,7.60989381 C7.96875,7.60989381 8.49609375,8.13723756 8.49609375,8.94290163 L8.49609375,8.94290163 Z M19.3798828,16.3696594 C19.3798828,16.9116516 18.8525391,17.4389954 18.046875,17.4389954 C17.5195312,17.4389954 16.9921875,16.9116516 16.9921875,16.3696594 C16.9921875,15.8423157 17.5195312,15.3149719 18.046875,15.3149719 C18.8525391,15.3149719 19.3798828,15.8423157 19.3798828,16.3696594 L19.3798828,16.3696594 Z M15.9228516,8.94290163 C15.9228516,9.73391725 15.3955078,10.261261 14.6044922,10.261261 C13.7988281,10.261261 13.0078125,9.73391725 13.0078125,8.94290163 C13.0078125,8.13723756 13.7988281,7.60989381 14.6044922,7.60989381 C15.3955078,7.60989381 15.9228516,8.13723756 15.9228516,8.94290163 L15.9228516,8.94290163 Z M25.2246094,16.3696594 C25.2246094,16.9116516 24.6826172,17.4389954 23.8916016,17.4389954 C23.3642578,17.4389954 22.8369141,16.9116516 22.8369141,16.3696594 C22.8369141,15.8423157 23.3642578,15.3149719 23.8916016,15.3149719 C24.6826172,15.3149719 25.2246094,15.8423157 25.2246094,16.3696594 L25.2246094,16.3696594 Z M21.328125,10.5542298 C20.4199219,6.276886 15.8349609,3.09817506 10.6201172,3.09817506 C4.77539062,3.09817506 0,7.06790163 0,12.1216126 C0,15.0366516 1.59667969,17.4389954 4.24804688,19.2993469 L3.19335938,22.4927063 L6.89941406,20.6323548 C8.23242188,20.8960266 9.28710938,21.1596985 10.6201172,21.1596985 C10.9570312,21.1596985 11.2792969,21.1450501 11.6162109,21.1157532 C11.3964844,20.4126282 11.2792969,19.6655579 11.2792969,18.8891907 C11.2792969,14.2602844 15.2636719,10.495636 20.3027344,10.495636 C20.6542969,10.495636 20.9912109,10.5102844 21.328125,10.5542298 L21.328125,10.5542298 Z M30,18.7720032 C30,14.5239563 25.7519531,11.0669251 20.9765625,11.0669251 C15.9228516,11.0669251 11.953125,14.5239563 11.953125,18.7720032 C11.953125,23.0200501 15.9228516,26.4770813 20.9765625,26.4770813 C22.03125,26.4770813 23.1005859,26.198761 24.1699219,25.9350891 L27.0849609,27.5317688 L26.2792969,24.8804016 C28.4179688,23.2837219 30,21.1596985 30,18.7720032 L30,18.7720032 Z" id="weixin---FontAwesome" fill="#000000"></path>
            </g>
        </g>
    </g>
</svg>