<?xml version="1.0" encoding="UTF-8"?>
<svg width="30px" height="30px" viewBox="0 0 30 30" version="1.1" xmlns="http://www.w3.org/2000/svg" xmlns:xlink="http://www.w3.org/1999/xlink">
    <!-- Generator: Sketch 40.3 (33839) - http://www.bohemiancoding.com/sketch -->
    <title>facebook-square - FontAwesome</title>
    <desc>Created with Sketch.</desc>
    <defs></defs>
    <g id="Symbols" stroke="none" stroke-width="1" fill="none" fill-rule="evenodd">
        <g id="FooterLinks/White" transform="translate(-175.000000, 0.000000)" fill="#FFFFFF">
            <g id="Group-5">
                <g id="Group-3" transform="translate(175.000000, 0.000000)">
                    <path d="M24.375,0 L5.625,0 C2.51953125,0 0,2.51953125 0,5.625 L0,24.375 C0,27.4804688 2.51953125,30 5.625,30 L16.015625,30 L16.015625,18.3789062 L12.109375,18.3789062 L12.109375,13.8476562 L16.015625,13.8476562 L16.015625,10.5078125 C16.015625,6.640625 18.3984375,4.53125 21.8554688,4.53125 C23.4960938,4.53125 24.921875,4.6484375 25.3320312,4.70703125 L25.3320312,8.75 L22.9492188,8.76953125 C21.0546875,8.76953125 20.703125,9.6484375 20.703125,10.9570312 L20.703125,13.8476562 L25.1757812,13.8476562 L24.5898438,18.3789062 L20.703125,18.3789062 L20.703125,30 L24.375,30 C27.4804688,30 30,27.4804688 30,24.375 L30,5.625 C30,2.51953125 27.4804688,0 24.375,0 L24.375,0 Z" id="facebook-square---FontAwesome"></path>
                </g>
            </g>
        </g>
    </g>
</svg>