<?xml version="1.0" encoding="UTF-8"?>
<svg width="30px" height="30px" viewBox="0 0 30 30" version="1.1" xmlns="http://www.w3.org/2000/svg" xmlns:xlink="http://www.w3.org/1999/xlink">
    <!-- Generator: Sketch 40.3 (33839) - http://www.bohemiancoding.com/sketch -->
    <title>ion-social-github - Ionicons</title>
    <desc>Created with Sketch.</desc>
    <defs></defs>
    <g id="Symbols" stroke="none" stroke-width="1" fill="none" fill-rule="evenodd">
        <g id="FooterLinks/White" transform="translate(-87.000000, 0.000000)" fill="#FFFFFF">
            <g id="Group-5">
                <g id="Group" transform="translate(87.000000, 0.000000)">
                    <path d="M15,0 C19.1518065,0 22.6897175,1.50668136 25.6138393,4.52008929 C28.537961,7.53349721 30,11.1606931 30,15.4017857 C30,18.7500167 29.0401882,21.7633795 27.1205357,24.4419643 C25.2008833,27.1205491 22.7455507,28.9732092 19.7544643,30 L19.4866071,30 C18.9508902,30 18.6830357,29.7321455 18.6830357,29.1964286 C18.6830357,29.1517855 18.6941963,28.6495584 18.7165179,27.6897321 C18.7388394,26.7299059 18.75,25.8482183 18.75,25.0446429 C18.75,23.7499935 18.3928607,22.7901817 17.6785714,22.1651786 C19.7321531,21.8973201 21.3950829,21.2388445 22.6674107,20.1897321 C23.9397385,19.1406198 24.5758929,17.2767991 24.5758929,14.5982143 C24.5758929,12.9910634 24.0625051,11.6071487 23.0357143,10.4464286 C23.4821451,9.15177924 23.4375027,7.79018571 22.9017857,6.36160714 L22.5669643,6.36160714 C21.5401734,6.36160714 20.2678647,6.89731607 18.75,7.96875 C17.4553507,7.61160536 16.2053632,7.43303571 15,7.43303571 C13.7946368,7.43303571 12.5446493,7.61160536 11.25,7.96875 C9.73213527,6.89731607 8.45982656,6.36160714 7.43303571,6.36160714 L7.09821429,6.36160714 C6.56249732,7.79018571 6.51785491,9.15177924 6.96428571,10.4464286 C5.93749487,11.6071487 5.42410714,12.9910634 5.42410714,14.5982143 C5.42410714,17.2767991 6.04910089,19.1406198 7.29910714,20.1897321 C8.54911339,21.2388445 10.2008826,21.8973201 12.2544643,22.1651786 C11.7633904,22.6562525 11.4508935,23.3482098 11.3169643,24.2410714 C10.7812473,24.5089299 10.200896,24.6428571 9.57589286,24.6428571 C8.45981585,24.6428571 7.58928884,24.084827 6.96428571,22.96875 C6.38392567,21.9866022 5.60268348,21.4508933 4.62053571,21.3616071 C3.68303103,21.3616071 3.66070982,21.674104 4.55357143,22.2991071 C5.22321763,22.6562518 5.78124777,23.4151728 6.22767857,24.5758929 C6.27232165,24.7544652 6.36160647,24.9665166 6.49553571,25.2120536 C6.62946496,25.4575905 6.99776484,25.781248 7.60044643,26.1830357 C8.20312801,26.5848234 8.92856719,26.7857143 9.77678571,26.7857143 C10.4017888,26.7857143 10.8928554,26.7410719 11.25,26.6517857 L11.25,29.2633929 C11.25,29.7544667 11.0044667,30 10.5133929,30 L10.2455357,30 C7.20980625,28.9732092 4.74331306,27.1317097 2.84598214,24.4754464 C0.948651228,21.8191831 0,18.7946598 0,15.4017857 C0,11.1606931 1.46203895,7.53349721 4.38616071,4.52008929 C7.31028248,1.50668136 10.8481935,0 15,0 L15,0 Z" id="ion-social-github---Ionicons"></path>
                </g>
            </g>
        </g>
    </g>
</svg>