<?xml version="1.0" encoding="UTF-8"?>
<svg width="30px" height="30px" viewBox="0 0 30 30" version="1.1" xmlns="http://www.w3.org/2000/svg" xmlns:xlink="http://www.w3.org/1999/xlink">
    <!-- Generator: Sketch 40.3 (33839) - http://www.bohemiancoding.com/sketch -->
    <title>Group 2</title>
    <desc>Created with Sketch.</desc>
    <defs></defs>
    <g id="Symbols" stroke="none" stroke-width="1" fill="none" fill-rule="evenodd">
        <g id="FooterLinks" fill="#000000">
            <g id="Group-2">
                <path d="M15,0 C19.1666875,0 22.7083187,1.45831875 25.625,4.375 C28.5416813,7.29168125 30,10.8333125 30,15 C30,19.1666875 28.5416813,22.7083188 25.625,25.625 C22.7083187,28.5416812 19.1666875,30 15,30 C10.8333125,30 7.29168125,28.5416812 4.375,25.625 C1.45831875,22.7083188 0,19.1666875 0,15 C0,10.8333125 1.45831875,7.29168125 4.375,4.375 C7.29168125,1.45831875 10.8333125,0 15,0 L15,0 Z M15,27.5 C18.4375172,27.5 21.3801961,26.2760539 23.828125,23.828125 C26.2760539,21.3801961 27.5,18.4375172 27.5,15 C27.5,11.5624828 26.2760539,8.61980391 23.828125,6.171875 C21.3801961,3.72394609 18.4375172,2.5 15,2.5 C11.5624828,2.5 8.61980391,3.72394609 6.171875,6.171875 C3.72394609,8.61980391 2.5,11.5624828 2.5,15 C2.5,18.4375172 3.72394609,21.3801961 6.171875,23.828125 C8.61980391,26.2760539 11.5624828,27.5 15,27.5 L15,27.5 Z M18.90625,14.296875 C18.5416648,13.3593703 18.2031266,12.5520867 17.890625,11.875 C19.9739687,10.9374953 21.6145773,9.92188047 22.8125,8.828125 C24.1145898,10.4948 24.8437492,12.2395742 25,14.0625 C22.7083219,14.0625 20.6770922,14.1406242 18.90625,14.296875 L18.90625,14.296875 Z M21.171875,7.1875 C19.9739523,8.17708828 18.5156336,9.01041328 16.796875,9.6875 C15.8072867,7.91665781 14.8177133,6.38021484 13.828125,5.078125 C14.088543,5.02604141 14.4791641,5 15,5 C17.2395945,5 19.2968656,5.72915937 21.171875,7.1875 L21.171875,7.1875 Z M11.09375,5.78125 C12.0833383,6.92708906 13.1510359,8.54165625 14.296875,10.625 C11.5364445,11.4583375 8.59376563,11.9010414 5.46875,11.953125 C6.35417109,9.03644375 8.22915234,6.97917266 11.09375,5.78125 L11.09375,5.78125 Z M24.921875,16.25 C24.6093734,18.9062633 23.4114687,21.0677 21.328125,22.734375 C21.328125,22.6302078 21.2369801,22.1614625 21.0546875,21.328125 C20.8723949,20.4947875 20.7291672,19.8437523 20.625,19.375 C20.5729164,19.0104148 20.2604195,18.0208414 19.6875,16.40625 C21.5625094,16.2499992 23.3072836,16.1979164 24.921875,16.25 L24.921875,16.25 Z M15.15625,15 C11.8229,16.406257 9.11459375,18.4374867 7.03125,21.09375 C5.67707656,19.2187406 5,17.1875109 5,15 L5,14.453125 C8.95835312,14.3489578 12.4479016,13.8020883 15.46875,12.8125 C15.6770844,13.2291688 15.9374984,13.8541625 16.25,14.6875 C15.7812477,14.7916672 15.416668,14.8958328 15.15625,15 L15.15625,15 Z M17.109375,16.71875 C17.5781273,18.0208398 17.9687484,19.2968687 18.28125,20.546875 C18.4375008,21.1718781 18.6979148,22.3697828 19.0625,24.140625 C17.7604102,24.7135445 16.406257,25 15,25 C12.6041547,25 10.4948008,24.2447992 8.671875,22.734375 C10.3906336,20.3906133 12.7343602,18.5416734 15.703125,17.1875 C15.9114594,17.0833328 16.3802047,16.9270844 17.109375,16.71875 L17.109375,16.71875 Z" id="ion-social-dribbble---Ionicons"></path>
            </g>
        </g>
    </g>
</svg>