<?xml version="1.0" encoding="UTF-8"?>
<svg width="30px" height="25px" viewBox="0 0 30 25" version="1.1" xmlns="http://www.w3.org/2000/svg" xmlns:xlink="http://www.w3.org/1999/xlink">
    <!-- Generator: Sketch 41.2 (35397) - http://www.bohemiancoding.com/sketch -->
    <title>weixin - FontAwesome</title>
    <desc>Created with Sketch.</desc>
    <defs></defs>
    <g id="Symbols" stroke="none" stroke-width="1" fill="none" fill-rule="evenodd">
        <g id="FooterLinks" transform="translate(-262.000000, -3.000000)" fill="#000000">
            <g id="Group-4" transform="translate(262.000000, 3.000000)">
                <path d="M8.49609375,5.94290163 C8.49609375,6.73391725 7.96875,7.261261 7.16308594,7.261261 C6.37207031,7.261261 5.56640625,6.73391725 5.56640625,5.94290163 C5.56640625,5.13723756 6.37207031,4.60989381 7.16308594,4.60989381 C7.96875,4.60989381 8.49609375,5.13723756 8.49609375,5.94290163 L8.49609375,5.94290163 Z M19.3798828,13.3696594 C19.3798828,13.9116516 18.8525391,14.4389954 18.046875,14.4389954 C17.5195312,14.4389954 16.9921875,13.9116516 16.9921875,13.3696594 C16.9921875,12.8423157 17.5195312,12.3149719 18.046875,12.3149719 C18.8525391,12.3149719 19.3798828,12.8423157 19.3798828,13.3696594 L19.3798828,13.3696594 Z M15.9228516,5.94290163 C15.9228516,6.73391725 15.3955078,7.261261 14.6044922,7.261261 C13.7988281,7.261261 13.0078125,6.73391725 13.0078125,5.94290163 C13.0078125,5.13723756 13.7988281,4.60989381 14.6044922,4.60989381 C15.3955078,4.60989381 15.9228516,5.13723756 15.9228516,5.94290163 L15.9228516,5.94290163 Z M25.2246094,13.3696594 C25.2246094,13.9116516 24.6826172,14.4389954 23.8916016,14.4389954 C23.3642578,14.4389954 22.8369141,13.9116516 22.8369141,13.3696594 C22.8369141,12.8423157 23.3642578,12.3149719 23.8916016,12.3149719 C24.6826172,12.3149719 25.2246094,12.8423157 25.2246094,13.3696594 L25.2246094,13.3696594 Z M21.328125,7.55422975 C20.4199219,3.276886 15.8349609,0.0981750637 10.6201172,0.0981750637 C4.77539062,0.0981750637 0,4.06790163 0,9.12161256 C0,12.0366516 1.59667969,14.4389954 4.24804688,16.2993469 L3.19335938,19.4927063 L6.89941406,17.6323548 C8.23242188,17.8960266 9.28710938,18.1596985 10.6201172,18.1596985 C10.9570312,18.1596985 11.2792969,18.1450501 11.6162109,18.1157532 C11.3964844,17.4126282 11.2792969,16.6655579 11.2792969,15.8891907 C11.2792969,11.2602844 15.2636719,7.495636 20.3027344,7.495636 C20.6542969,7.495636 20.9912109,7.51028444 21.328125,7.55422975 L21.328125,7.55422975 Z M30,15.7720032 C30,11.5239563 25.7519531,8.06692506 20.9765625,8.06692506 C15.9228516,8.06692506 11.953125,11.5239563 11.953125,15.7720032 C11.953125,20.0200501 15.9228516,23.4770813 20.9765625,23.4770813 C22.03125,23.4770813 23.1005859,23.198761 24.1699219,22.9350891 L27.0849609,24.5317688 L26.2792969,21.8804016 C28.4179688,20.2837219 30,18.1596985 30,15.7720032 L30,15.7720032 Z" id="weixin---FontAwesome"></path>
            </g>
        </g>
    </g>
</svg>